<svg width="25" height="25" viewBox="0 0 25 25" fill="none" xmlns="http://www.w3.org/2000/svg">
<path d="M22.3625 3.32653C21.5203 1.25309 19.1277 0.242935 17.0176 1.06989C15.4082 1.70153 14.4309 3.21989 14.4301 4.82418H10.8285L9.48984 3.50895C8.49492 2.53083 6.88047 2.53043 5.88516 3.50895L2.34375 6.98786L2.88437 7.51911L6.42578 4.03981C7.12266 3.35504 8.25234 3.35543 8.94922 4.03981L9.74727 4.82418H8.84062C10.668 9.07106 5.1125 16.7629 11.5754 18.0554C11.5711 18.0574 11.566 18.0593 11.5699 18.0609C13.5453 18.7453 13.4398 20.3777 12.7949 21.9144C12.1117 23.5422 10.4754 23.839 10.4602 23.8484C10.4117 23.8765 10.3832 23.9656 10.3902 24.0582C10.3992 24.1504 10.441 24.2187 10.4914 24.2187H16.9781C17.0281 24.2187 17.0707 24.1504 17.0785 24.0582C17.0867 23.9656 17.0566 23.8765 17.0086 23.8484C16.993 23.839 15.3578 23.5422 14.6742 21.9144C14.0293 20.3773 13.9242 18.7453 15.8988 18.0609C15.9035 18.0593 15.8977 18.0574 15.8934 18.0554C20.5965 17.1152 18.9367 12.7863 18.3875 8.86169C18.9607 8.88397 19.5323 8.78742 20.0664 8.57809C22.1762 7.75153 23.2039 5.39997 22.3625 3.32653ZM13.7348 17.5519C5.5668 17.5519 11.3066 9.35387 9.62969 5.1859H10.1156L13.3648 8.37809C12.582 8.14294 11.7594 7.95114 10.8605 7.95114C10.7266 7.95114 10.5918 7.95544 10.4539 7.96442C10.4254 9.44333 10.0105 11.1257 9.86289 12.6308C9.63086 15.0031 10.0652 16.9359 13.7344 16.9359C16.7891 16.9359 17.6012 15.5957 17.6543 13.7785C17.6937 12.4136 17.3055 10.7797 17.1148 9.23981C17.0598 9.24215 17.0055 9.24294 16.9504 9.24294C16.2836 9.24294 15.6289 9.08747 14.9617 8.88551L11.1957 5.18551H14.4449C14.4801 5.56598 14.5687 5.94762 14.7203 6.32067C15.2402 7.60231 16.3531 8.47614 17.6254 8.76286C18.132 12.8543 19.9176 17.5519 13.7348 17.5519ZM16.7742 11.7285L16.8758 11.6289C16.9617 12.1965 17.032 12.7429 17.0539 13.2519C17.0199 13.2527 16.9852 13.2535 16.95 13.2535C16.1281 13.2535 15.2828 12.9773 14.3879 12.6847C13.3539 12.3472 12.1816 11.964 10.8613 11.964C10.7551 11.964 10.6492 11.9664 10.5426 11.9715C10.5938 11.6054 10.6547 11.2304 10.7176 10.841C10.841 10.0781 10.968 9.2945 11.023 8.53903C12.0871 8.56911 13.0648 8.88903 14.0109 9.19879C14.1051 9.22965 14.198 9.25856 14.2918 9.28864L16.7742 11.7285ZM15.7937 9.70231C16.057 9.75504 16.3219 9.79801 16.5918 9.81676C16.6309 10.0824 16.6734 10.3457 16.7156 10.6082L15.7937 9.70231ZM16.8648 7.95192C16.9711 7.93825 17.0422 7.84606 17.1203 7.84215C17.1418 7.84098 17.3117 7.49997 17.5164 7.06442C17.5152 7.15544 17.5141 7.24645 17.5156 7.33903C17.3754 7.67419 17.2691 7.94293 17.2539 8.02731C17.241 8.10465 17.3473 8.14958 17.3723 8.22419C17.3836 8.25895 17.4605 8.28708 17.5758 8.30973L17.5953 8.49411C16.4402 8.20544 15.4359 7.39997 14.9602 6.22848C14.8255 5.89504 14.7397 5.54388 14.7055 5.1859H14.9355C14.9469 5.54489 14.9785 5.83669 15.0285 5.87419C15.1129 5.93747 15.2309 5.92145 15.2883 5.97223C15.3188 5.9984 16.6598 5.51325 17.4672 5.1859H17.6684C16.9145 5.47379 15.5387 6.007 15.3602 6.12809C15.2949 6.17379 15.3375 6.27887 15.3012 6.34801C15.2027 6.53239 16.6926 7.97262 16.8648 7.95192ZM19.9699 8.34294C19.4557 8.54417 18.9046 8.63378 18.3531 8.60583C18.3434 8.52848 18.3344 8.45114 18.3254 8.37419C18.9219 8.39137 19.5875 8.35739 19.6461 8.28395C19.7125 8.20153 19.6953 8.08786 19.7477 8.03161C19.7879 7.98864 18.7086 5.24215 18.6426 5.33786C18.5859 5.4195 18.5051 5.36833 18.4523 5.332C18.502 5.15856 18.5582 4.98825 18.6285 4.82418H18.0195C18.0211 4.76286 18.0863 4.69918 18.0941 4.67458C18.0941 4.67458 15.5887 3.60192 15.2914 3.55192C15.2121 3.53786 15.166 3.64137 15.0895 3.66481C14.9836 3.6984 14.9344 4.27028 14.9305 4.82418H14.6875C14.6883 3.3195 15.6043 1.89684 17.1129 1.30504C19.0906 0.529654 21.3348 1.47614 22.1234 3.42028C22.9121 5.36364 21.9484 7.56833 19.9699 8.34294Z" fill="#008080"/>
<path d="M19.7344 1.42737C19.6691 1.22932 17.5656 1.23362 17.4594 1.36682C17.3941 1.44924 17.4109 1.56369 17.3586 1.61955C17.3184 1.66291 18.3988 4.4094 18.4641 4.31369C18.5387 4.2051 18.659 4.33323 18.6949 4.34416C18.6949 4.34416 19.7996 1.91213 19.8516 1.62307C19.8652 1.54651 19.759 1.50119 19.7344 1.42737Z" fill="#008080"/>
<path d="M22.0652 3.75075C21.9805 3.68668 21.8633 3.7027 21.8043 3.65231C21.7605 3.61325 18.932 4.66207 19.0301 4.72497C19.1422 4.79801 19.0098 4.91442 18.9977 4.94957C18.9977 4.94957 21.5043 6.02184 21.8008 6.07301C21.8809 6.08629 21.9269 5.98278 22.0031 5.95856C22.2066 5.89567 22.2027 3.85309 22.0652 3.75075Z" fill="#008080"/>
<path d="M17.0027 1.67736C16.8129 1.58205 15.3281 3.02853 15.35 3.19572C15.3641 3.29923 15.4578 3.36837 15.4629 3.44416C15.4668 3.50236 18.2293 4.70314 18.2063 4.59025C18.1805 4.46173 18.359 4.47111 18.3926 4.45392C18.3926 4.45392 17.402 1.97501 17.2289 1.73517C17.1816 1.67072 17.0734 1.71212 17.0027 1.67736Z" fill="#008080"/>
<path d="M18.9711 5.1012C18.9973 5.22971 18.8184 5.22151 18.7848 5.2387C18.7848 5.2387 19.7758 7.71643 19.9492 7.95706C19.9953 8.02034 20.1035 7.97932 20.1738 8.01409C20.3641 8.10901 21.8484 6.66213 21.8266 6.49534C21.8137 6.39221 21.718 6.32346 21.7141 6.2469C21.7109 6.18948 18.9484 4.98909 18.9711 5.1012Z" fill="#008080"/>
<path d="M18.8074 4.43164C18.9402 4.40547 18.9316 4.5793 18.9488 4.61211C18.9488 4.61211 21.5008 3.65039 21.7488 3.48164C21.8141 3.43711 21.7715 3.33086 21.8074 3.26211C21.9055 3.07774 20.4156 1.63711 20.2438 1.65781C20.1375 1.67109 20.066 1.76367 19.9879 1.76836C19.9293 1.77149 18.693 4.45352 18.8074 4.43164Z" fill="#008080"/>
</svg>
