<svg width="25" height="25" viewBox="0 0 25 25" fill="none" xmlns="http://www.w3.org/2000/svg">
<path d="M23.2793 14.0152C24.7758 11.1645 21.734 9.1875 17.757 8.21797C18.0563 7.53789 18.143 6.64766 17.2992 5.79766C16.2172 4.70977 16.9363 3.125 16.9363 3.125C16.9363 3.125 14.6652 5.21992 16.0992 6.66445C16.6281 7.19688 16.9035 7.66445 17.0352 8.05547C15.9373 7.82917 14.8256 7.67597 13.7074 7.59688C14.0414 6.68906 14.0738 5.54883 13.0215 4.45703C11.5809 2.96055 12.5402 0.78125 12.5402 0.78125C12.5402 0.78125 9.51172 3.66172 11.4238 5.64766C12.1219 6.37188 12.4895 7.00938 12.6676 7.54375C11.4824 7.5082 10.3418 7.56016 9.32852 7.70195C9.44922 7.11797 9.34844 6.44648 8.7043 5.79805C7.62227 4.71016 8.3418 3.125 8.3418 3.125C8.3418 3.125 6.07032 5.21992 7.50469 6.66445C7.95391 7.1168 8.21719 7.5207 8.36836 7.87266C8.19727 7.91016 8.03125 7.95078 7.87149 7.99492C2.93321 7.53281 0.779299 8.55313 1.76328 10.5547C0.0460963 12.2719 0.691409 14.2316 2.84024 15.7312C3.96133 20.3488 4.25 24.2188 12.6938 24.2188C20.2281 24.2188 21.2691 21.1367 22.2023 17.1922C25.0023 16.6348 24.4059 15.2926 23.2793 14.0152ZM22.5813 13.5539C21.6434 15.5539 17.573 17.0594 12.6938 17.0594C7.81485 17.0594 3.74453 15.5539 2.80625 13.5539C2.78633 13.4945 2.76719 13.4328 2.74805 13.3727C3.19492 12.2391 4.64727 11.2555 6.68711 10.5969C6.20782 11.0602 6.10821 11.752 7.36953 11.9945C7.73047 12.0641 8.72149 11.8234 8.28828 10.5938C8.22774 10.4219 8.12891 10.3066 8.00742 10.2371C9.40899 9.91641 11 9.73164 12.6938 9.73164C12.8836 9.73164 13.0699 9.73828 13.257 9.74258C12.2797 10.0895 11.4824 11.1582 13.4781 11.4734C13.9188 11.543 15.1285 11.3023 14.5996 10.0727C14.5534 9.96306 14.4793 9.86744 14.3848 9.79531C16.2547 9.93281 17.9488 10.293 19.3184 10.8121C18.1141 10.7449 16.7781 11.4871 18.9176 12.532C19.3766 12.7563 20.7711 12.9621 20.5793 11.6043C20.5654 11.5062 20.5308 11.4122 20.4777 11.3285C21.5727 11.9055 22.3363 12.6051 22.6391 13.3727L22.5813 13.5539Z" fill="#008080"/>
<path d="M10.0926 14.391C11.3555 14.391 12.1977 13.2492 12.8574 12.8023C13.7793 12.1773 16.0973 11.9336 14.0559 11.8844C12.1195 11.8379 9.7289 13.4098 8.13125 13.3016C5.48593 13.1219 8.19531 14.391 10.0926 14.391Z" fill="#008080"/>
<path d="M12.8215 16.7238C13.2676 16.8098 14.4937 16.5121 13.9574 14.9914C13.3516 13.2707 9.68398 16.1199 12.8215 16.7238Z" fill="#008080"/>
<path d="M5.87774 12.9602C5.45157 12.3586 4.8336 11.5957 4.57774 11.993C4.22813 12.5364 4.11797 13.6297 4.37188 13.6781C6.3625 14.0598 6.22305 13.4473 5.87774 12.9602Z" fill="#008080"/>
<path d="M17.45 13.2039C17.809 12.7593 17.0922 11.6894 16.632 11.8765C15.9117 12.1695 15.4965 11.9711 15.1801 12.4156C14.4391 13.4566 16.9621 13.8074 17.45 13.2039Z" fill="#008080"/>
<path d="M17.2258 14.4777C16.7094 14.25 16.8312 15.0129 16.0683 14.4008C15.5223 13.9625 14.3473 15.068 15.1223 15.8187C15.9848 16.6543 16.2144 15.8601 16.5769 15.9269C17.3137 16.0625 18.5805 15.0754 17.2258 14.4777Z" fill="#008080"/>
<path d="M8.63906 14.7387C8.36992 14.4739 8.00899 14.7934 7.80508 15.1832C7.60313 15.084 7.43867 15.061 7.43867 15.061C7.28438 14.6211 6.82539 14.3196 6.82539 14.3196C6.82539 14.3196 6.86719 14.777 6.92774 15C6.42071 14.8199 6.40508 13.9137 6.40508 13.9137C6.40508 13.9137 6.06485 14.1172 6.0957 14.4629C5.5375 14.0125 5.06211 14.2231 5.06211 14.2231C5.06211 14.2231 5.77031 14.6215 5.86797 14.8903C5.47031 14.9211 5.23828 15.0586 5.10313 15.3785C5.10352 15.3813 5.88906 15.0047 6.47031 15.2766C6.24102 15.4641 6.35508 15.9324 6.35508 15.9324C6.8961 15.359 7.32813 15.4203 7.67383 15.5231C7.63203 15.6985 7.63477 15.8586 7.70899 15.9559C8.3086 16.7442 10.3973 16.5668 10.9582 15.984C11.6375 15.2789 9.75 15.8321 8.63906 14.7387Z" fill="#008080"/>
<path d="M10.1144 11.7695C9.93672 12.1265 9.93554 12.3961 10.141 12.6765C10.1437 12.6773 10.2238 11.8101 10.7555 11.4508C10.7988 11.7437 11.259 11.8859 11.259 11.8859C10.891 10.5828 11.9652 10.5148 11.9602 10.0472C11.3906 10.0953 11.0672 10.5093 11.0672 10.5093C10.6105 10.416 10.1156 10.6547 10.1156 10.6547C10.1156 10.6547 10.5301 10.8535 10.7523 10.9164C10.3375 11.259 9.55156 10.807 9.55156 10.807C9.55156 10.807 9.55156 11.2039 9.86406 11.3543C9.19101 11.6023 9.12773 12.1179 9.12773 12.1179C9.12773 12.1179 9.8332 11.7152 10.1144 11.7695Z" fill="#008080"/>
<path d="M20.0953 13.5492C20.257 13.2422 20.0211 12.923 20.0211 12.923C20.0211 12.923 19.6582 13.7539 19.1211 13.7254C19.2625 13.5426 19.4773 13.1363 19.4773 13.1363C19.4773 13.1363 18.9375 13.239 18.6258 13.5855C18.6258 13.5855 18.1195 13.4453 17.6336 13.7453C17.9078 14.1242 18.8117 13.5394 19.291 14.8058C19.291 14.8058 19.5762 14.418 19.4367 14.1566C20.0781 14.1289 20.6586 14.7781 20.6605 14.7758C20.6582 14.4281 20.4973 14.2125 20.1414 14.0312C20.3352 13.8207 21.1422 13.725 21.1422 13.725C21.1422 13.725 20.7844 13.348 20.0953 13.5492Z" fill="#008080"/>
</svg>
