<svg width="25" height="25" viewBox="0 0 25 25" fill="none" xmlns="http://www.w3.org/2000/svg">
<path d="M10.2058 18.1082C9.81522 17.9993 7.93632 16.9196 7.58046 16.8461C7.50845 17.1221 7.5102 17.4121 7.58553 17.6871C8.26835 18.0344 9.56249 18.111 10.0711 18.111C10.1258 18.111 10.1715 18.1098 10.2058 18.1082Z" fill="#008080"/>
<path d="M15.6379 18.6258C15.2574 18.6563 14.8816 18.6781 14.5195 18.6805C14.5496 18.8 14.6348 18.9199 14.8324 19.0238C15.1105 19.1703 15.3559 19.2301 15.5234 19.2301C15.7188 19.2301 15.8082 19.1481 15.7207 19.0207C15.6453 18.911 15.6188 18.7703 15.6379 18.6258Z" fill="#008080"/>
<path d="M7.9996 18.7317C8.13046 18.9418 8.26171 19.2141 8.5246 19.318C9.33476 19.6383 10.6207 19.7246 11.7445 19.7246C12.9883 19.7246 14.0316 19.6188 14.0121 19.6086C13.7312 19.461 11.3191 18.6828 8.96757 18.6832C8.64218 18.6832 8.31718 18.6981 7.9996 18.7317Z" fill="#008080"/>
<path d="M5.6957 18.0715C5.64413 18.4941 6.45195 19.609 6.45195 19.609C6.45195 19.609 7.2082 19.9937 7.96406 19.9937C7.80898 19.7715 7.23671 18.7133 7.20937 18.6418C6.8496 18.5742 5.9496 18.2867 5.6957 18.0715Z" fill="#008080"/>
<path d="M4.65507 15.8602C4.70975 15.7278 4.7871 15.5906 4.88827 15.4504V14.5367C4.34843 14.8453 3.92538 15.1637 3.63202 15.4551C3.72577 15.5239 3.83319 15.591 3.96796 15.652C4.19022 15.7531 4.42108 15.8192 4.65507 15.8602Z" fill="#008080"/>
<path d="M4.575 18.0734C4.50976 18.3813 4.73437 18.8352 5.3207 19.2375C5.35117 19.2484 5.38008 19.2621 5.41133 19.2723C4.99609 18.7418 4.8125 18.1438 4.90781 17.618C4.72226 17.75 4.61015 17.9078 4.575 18.0734Z" fill="#008080"/>
<path d="M6.88085 16.8289C6.68409 16.8087 6.48644 16.7985 6.28866 16.7984C5.90428 16.7984 5.57928 16.841 5.31757 16.9191C5.70858 17.2484 6.28553 17.5203 6.95546 17.675C6.89021 17.398 6.86508 17.113 6.88085 16.8289Z" fill="#008080"/>
<path d="M21.2375 16.4402C21.9504 14.998 20.4387 14.2289 20.0602 14.2289C20.0863 14.2633 21.5727 15.3816 21.2375 16.4402Z" fill="#008080"/>
<path d="M19.6988 17.7582C19.8031 17.9039 19.9078 18.0324 20.0016 18.1356C20.1571 18.0322 20.3031 17.9152 20.4379 17.786C20.3484 17.7223 20.218 17.6629 20.0449 17.6168C19.9336 17.6653 19.8184 17.7125 19.6988 17.7582Z" fill="#008080"/>
<path d="M18.548 16.9191C18.6625 16.9598 19.1898 17.25 19.3043 17.3027C19.4242 17.1473 20.6488 15.7656 20.4387 15.7656H19.6824C19.6824 15.7656 18.732 16.7625 18.548 16.9191Z" fill="#008080"/>
<path d="M17.9308 18.2852C17.4626 18.3901 16.9898 18.4742 16.5141 18.5371C16.4824 18.6184 16.9297 19.0988 16.9297 19.0988C17.368 18.9199 17.732 18.6316 17.9308 18.2852Z" fill="#008080"/>
<path d="M18.3637 18.1801C18.3285 18.3035 18.2805 18.425 18.2149 18.543C18.0813 18.7859 17.8859 19.0031 17.6492 19.1859C17.8324 19.1289 18.0149 19.068 18.1945 19.0039C18.5633 18.874 18.9244 18.7234 19.2762 18.5527C19.139 18.3892 19.0172 18.2133 18.9125 18.0273C18.7344 18.0809 18.5512 18.132 18.3637 18.1801Z" fill="#008080"/>
<path d="M7.5164 16.5668C7.78085 17.3973 8.43866 16.5055 8.99139 17.0086C9.23515 17.2301 9.66796 17.3043 10.1301 17.3274C10.9351 18.1152 11.9004 18.3774 12.7195 18.3774C13.4203 18.3774 14.0137 18.1895 14.3051 17.9844C13.6168 17.8801 12.198 17.5715 11.1461 17.3348C11.3625 17.3356 11.5551 17.3422 11.6992 17.368C12.3254 17.4809 12.4152 17.0117 13.166 17.2695C13.916 17.5285 13.8242 16.5289 15.5793 17.2055C16.1379 17.4211 16.0019 16.5414 16.9379 16.7867C17.8726 17.0332 17.1984 16.0762 18.3723 16.152C19.0457 16.1953 18.6484 15.3992 17.998 14.7668C18.4707 15.0817 18.8215 15.3285 18.9269 15.3813C18.984 15.2164 18.8633 14.7555 18.9269 14.6125C18.8348 14.5539 17.4148 13.4602 15.1465 12.6918C15.1465 12.6918 15.0379 13.025 14.7683 13.0754C15.3926 13.2348 16.1578 13.6293 16.8629 14.0488C16.7176 14.0129 16.5793 14.007 16.4574 14.0426C15.4476 14.3418 14.2023 12.3016 12.6898 12.3016C11.3598 12.3016 9.91444 12.6918 8.73241 13.2149C8.17053 13.3127 7.61519 13.445 7.06952 13.611L7.0496 13.6211L6.89804 14.3039C6.40819 14.7192 6.17069 15.1192 6.32499 15.4121C6.72147 16.1629 7.25116 15.7367 7.5164 16.5668ZM17.2254 14.9981L17.4144 15.3817L17.2254 15.7656L17.0363 15.3817L17.2254 14.9981ZM15.7133 14.0371L15.9969 14.6133L15.7133 15.1906L15.4297 14.6129L15.7133 14.0371ZM14.5789 14.2289L14.768 14.6129L14.5789 14.9977L14.3902 14.6129L14.5789 14.2289ZM13.4453 12.6922L13.634 13.0758L13.4453 13.4602L13.2562 13.0758L13.4453 12.6922ZM13.4453 14.9981L13.634 15.3817L13.4453 15.7656L13.2562 15.3817L13.4453 14.9981ZM12.3109 13.6527L12.5945 14.2289L12.3109 14.8055L12.0273 14.2289L12.3109 13.6527ZM11.9328 15.7656L12.1219 16.15L11.9328 16.5344L11.7437 16.15L11.9328 15.7656ZM11.1769 12.5L11.4605 13.0762L11.1769 13.6531L10.8933 13.0762L11.1769 12.5ZM10.7988 14.2289L10.9879 14.6129L10.7988 14.9977L10.6098 14.6129L10.7988 14.2289ZM9.66483 13.0762L9.8539 13.4606L9.66483 13.8445L9.47577 13.4606L9.66483 13.0762ZM9.66483 14.9981L9.8539 15.3817L9.66483 15.7656L9.47577 15.3817L9.66483 14.9981ZM8.53085 14.0371L8.81444 14.6133L8.53085 15.1906L8.24725 14.6133L8.53085 14.0371ZM7.39686 14.6129L7.58593 14.9977L7.39686 15.3813L7.2078 14.9977L7.39686 14.6129Z" fill="#008080"/>
<path d="M12.4992 10.514C10.384 10.514 8.4207 10.8094 6.72461 11.3238V9.5574C6.75195 9.55076 6.78086 9.54529 6.80742 9.53943V10.0609C6.80742 10.3883 7.13242 10.634 7.56367 10.634C7.99453 10.634 8.31992 10.3883 8.31992 10.0609V9.12498C10.2543 8.49139 10.9578 7.81209 10.9578 7.81209C10.9578 7.81209 11.2957 7.53006 11.1742 7.19373C11.1629 7.16404 21.9152 3.26287 23.3594 2.73397C24.0609 2.4785 23.3371 0.547639 22.6363 0.80506C21.1926 1.3324 10.4613 5.29256 10.4512 5.26248C10.3293 4.92654 9.89062 4.9285 9.89062 4.9285C9.89062 4.9285 9.35352 4.89725 8.31953 5.18319V5.16248C8.31953 4.83514 7.99414 4.58787 7.56328 4.58787C7.13203 4.58787 6.80703 4.83514 6.80703 5.16248V5.71951C6.77617 5.7324 6.74297 5.74842 6.71172 5.76092C6.65273 5.48514 6.35391 5.28748 5.96836 5.28748C5.5375 5.28748 5.2125 5.53358 5.2125 5.8617V6.4949C4.65938 6.79623 4.11821 7.119 3.59023 7.46248C3.25195 7.68084 3.67891 7.71483 3.67891 7.71483C3.67891 7.71483 3.87344 7.64803 4.17344 7.54881C4.11911 7.62696 4.08957 7.71965 4.08867 7.81483V8.50154C3.95469 8.59412 3.87344 8.67733 3.88555 8.74569C3.89531 8.80076 3.97227 8.81795 4.08867 8.81365V12.4262C2.03672 13.5726 0.78125 15.1465 0.78125 16.914C0.78125 18.4039 1.67109 19.7601 3.18008 20.8363C4.46758 22.7992 8.14648 24.2187 12.5 24.2187C16.8539 24.2187 20.5344 22.7988 21.8219 20.8347C23.3297 19.7586 24.2188 18.4039 24.2188 16.914C24.2188 13.325 19.0707 10.514 12.4992 10.514ZM7.37461 5.2074C7.40586 5.18865 7.47148 5.16522 7.56367 5.16522C7.65586 5.16522 7.72148 5.18904 7.75273 5.2074V10.016C7.72148 10.034 7.65586 10.0582 7.56367 10.0582C7.49803 10.0601 7.43296 10.0453 7.37461 10.0152V5.2074ZM6.72461 6.80115C6.75156 6.79451 6.78125 6.78631 6.80742 6.78084V7.30389L6.72461 7.33787V6.80115ZM6.72461 8.07733C6.75195 8.06951 6.78047 8.06014 6.80742 8.05194V8.68397C6.78047 8.69647 6.75195 8.70897 6.72461 8.72225V8.07733ZM15.1641 11.4515C14.7145 11.4722 14.2668 11.5121 13.8313 11.5926C13.7914 11.5859 13.6758 11.5355 13.5977 11.5027C13.4156 11.4242 13.2094 11.3344 12.9699 11.3344C12.95 11.3344 12.9309 11.3351 12.9113 11.3363C12.8199 11.3129 12.7254 11.3008 12.6324 11.2847C13.5039 11.2898 14.352 11.3472 15.1641 11.4515ZM10.4867 11.3797C10.2801 11.4245 10.0743 11.4724 9.86914 11.5234C9.43789 11.6301 9.03008 11.7316 8.71992 11.7316C8.54219 11.7316 8.29102 11.7476 7.99141 11.7832C8.81327 11.5933 9.6469 11.4585 10.4867 11.3797ZM5.21289 7.21717V7.31287C5.16247 7.29199 5.11014 7.27603 5.05664 7.26522C5.10859 7.24881 5.15938 7.23279 5.21289 7.21717ZM4.09063 13.7219C4.22617 13.6351 4.65586 13.4195 4.65586 13.4195V7.86092C4.68711 7.84178 4.75273 7.81834 4.84492 7.81834C4.93711 7.81834 5.00273 7.84217 5.03398 7.86092V13.2457L5.77969 12.8765V5.90662C5.83812 5.87682 5.9032 5.86243 5.96875 5.86483C6.06094 5.86483 6.12656 5.88826 6.15781 5.90662V12.7652L6.69414 12.6105C7.55312 12.3988 8.33398 12.3086 8.72031 12.3086C9.55547 12.3086 10.6516 11.7867 11.8641 11.7867C12.1945 11.7867 12.5336 11.8254 12.8785 11.9246C12.9083 11.9156 12.9392 11.9112 12.9703 11.9117C13.2273 11.9117 13.548 12.1695 13.8449 12.1695C13.8633 12.1695 13.8813 12.1687 13.8996 12.1668C14.6727 12.0232 15.4608 11.9771 16.2453 12.0297C17.0816 12.0867 18.4898 12.3109 19.4805 13.125C21.1609 13.7699 22.0445 14.4816 22.1711 15.291C22.2406 15.7359 21.673 16.7586 21.573 17.3035C21.4379 18.0433 20.0609 19.6094 18.1746 19.8195C17.3383 19.9129 10.634 20.3793 10.6105 20.3871C11.6453 21.0801 12.6617 21.1472 12.8484 21.1472C12.8585 21.1475 12.8685 21.1471 12.8785 21.1461L13.2566 21.9152C12.9492 21.9465 12.666 21.9609 12.4031 21.9609C10.0258 21.9609 9.35039 20.7859 8.10312 20.7859L8.06758 20.7863C8.03672 20.7867 8.00547 20.7875 7.97422 20.7875C7.05937 20.7875 5.89648 20.5515 4.5293 19.8719C3.59922 19.4105 3.09492 18.8605 3.02969 18.2375C3.00078 17.9586 3.0543 17.5433 3.44453 17.1312C1.91562 16.5351 2.90078 15.7437 3.10508 15.4605C3.08828 14.7406 3.45938 14.123 4.09063 13.7219ZM12.4992 22.5465C6.45469 22.5465 1.53711 20.0203 1.53711 16.914C1.53711 15.9402 2.0207 15.0238 2.8707 14.2246C2.68477 14.5437 2.56914 14.882 2.54336 15.2418C2.32227 15.4965 1.92305 15.9871 2.06719 16.5879C2.13828 16.8836 2.3207 17.1347 2.62031 17.3465C2.48596 17.6443 2.4326 17.9722 2.46562 18.2972C2.55234 19.132 3.16328 19.8355 4.28047 20.3902C5.58086 21.0351 6.82344 21.3633 7.97422 21.3633L8.07734 21.3625L8.10273 21.3621C8.49687 21.3621 8.83125 21.5265 9.29375 21.7523C10.007 22.1019 10.8941 22.5359 12.4023 22.5359C12.6922 22.5359 12.9988 22.5203 13.3137 22.4875L14.1305 22.4035L13.7637 21.6554L13.3852 20.8875L13.3266 20.7668C15.3164 20.6238 17.7449 20.4465 18.2363 20.3922C20.323 20.159 21.9367 18.4687 22.1305 17.4078C22.1609 17.241 22.2715 16.959 22.3789 16.6855C22.5938 16.1375 22.7965 15.6195 22.7309 15.1988C22.7036 15.0289 22.6546 14.8633 22.5852 14.7058C23.1496 15.384 23.4629 16.1301 23.4629 16.9129C23.4625 20.0203 18.5445 22.5465 12.4992 22.5465Z" fill="#008080"/>
</svg>
