<svg width="25" height="25" viewBox="0 0 25 25" fill="none" xmlns="http://www.w3.org/2000/svg">
<path d="M24.2188 14.425C24.2188 13.1297 23.3859 11.9566 21.9828 11.0367C21.8813 10.6703 21.7109 10.3172 21.4805 9.98047C21.6208 9.65422 21.705 9.30663 21.7297 8.95234C22.6375 8.14609 23.1566 7.19922 23.1566 6.17695C23.1566 3.15117 18.6262 0.78125 12.8422 0.78125C7.18398 0.78125 2.72773 3.05 2.53711 5.98164C1.63008 6.7875 1.11172 7.73281 1.11172 8.7543C1.11172 9.41367 1.32734 10.0418 1.72344 10.6207C1.55453 11.0078 1.46679 11.4253 1.46563 11.8477C1.46563 12.9199 2.03672 13.9086 3.02852 14.7395C1.61289 15.6531 0.78125 16.7887 0.78125 18.0328C0.78125 18.5586 0.932031 19.0645 1.20937 19.5426C1.74062 22.1648 6.58633 24.2188 12.4883 24.2188C18.3902 24.2188 23.2363 22.1648 23.7672 19.5426C24.0445 19.0641 24.1953 18.5582 24.1953 18.0328C24.1953 17.418 23.9887 16.8312 23.6125 16.2828C24.0047 15.7059 24.2188 15.0809 24.2188 14.425ZM21.8578 7.71484L21.8547 7.70039C21.8609 7.69922 21.866 7.69609 21.8723 7.69492L21.8578 7.71484ZM13.8223 1.71484C21.6934 1.71484 23.5543 6.98359 21.4914 6.98359C20.4289 6.98359 21.6938 8.49492 20.8656 8.49492C19.2332 8.49492 21.2715 15.6074 19.4961 15.6074C17.3293 15.6074 20.4145 9.22813 18.5727 9.22813C17.7055 9.22813 17.3953 10.4742 16.416 10.4742C15.3438 10.4742 15.241 9.06836 14.4922 9.06836C14.1965 9.06836 13.8004 9.2875 13.2043 9.89805C12.4645 10.6562 11.6883 11.1449 11.0547 11.1449C10.4035 11.1449 9.90273 10.6289 9.74531 9.35859C9.68945 8.90742 9.51289 8.74922 9.3 8.74922C8.91211 8.74922 8.40352 9.27383 8.28125 9.51133C6.94414 12.1105 9.35156 17.9297 7.30781 17.9297C4.91602 17.9297 8.06172 9.25508 6.50352 9.25508C6.08906 9.25508 5.56367 9.77227 5.15469 9.77227C5.08121 9.7734 5.0089 9.75377 4.94609 9.71562C3.47695 8.81602 6.35742 6.22695 4.92656 6.22695C1.71211 6.22734 5.06367 1.71484 13.8223 1.71484ZM20.9457 10.9723C20.945 10.9381 20.9441 10.904 20.943 10.8699C20.9816 10.8211 21.0176 10.7723 21.0531 10.723C21.2391 11.0828 21.3387 11.4594 21.3387 11.8473C21.3387 12.2516 21.2285 12.6438 21.0273 13.018C21.0176 12.6605 21.0016 12.2891 20.9836 11.9031C20.9781 11.7949 20.9727 11.6766 20.9672 11.5535C20.9762 11.4797 20.9848 11.4062 20.9848 11.3316C20.9841 11.2108 20.971 11.0904 20.9457 10.9723ZM11.4262 13.3941C10.5048 13.3938 9.5847 13.3267 8.67305 13.1934C8.64422 12.8501 8.62481 12.5061 8.61484 12.1617C9.50195 12.2898 10.4445 12.3625 11.4262 12.3625C14.2055 12.3625 16.6926 11.8086 18.3805 10.9352C18.3334 11.2936 18.2785 11.651 18.216 12.007C16.4844 12.8598 14.0887 13.3941 11.4262 13.3941ZM18.0727 15.3313C16.3898 16.0477 14.1938 16.4863 11.7805 16.4863C10.7836 16.4863 9.82656 16.4078 8.92344 16.2703C8.91807 15.9261 8.8997 15.5823 8.86836 15.2395C9.83237 15.3835 10.8058 15.4558 11.7805 15.4555C14.1496 15.4555 16.3031 15.0504 17.9352 14.391C17.9387 14.7363 17.9777 15.0543 18.0727 15.3313ZM8.7668 10.3699C8.81641 10.1855 8.87461 10.0105 8.95352 9.85781C8.9707 9.82852 9.00234 9.78984 9.04102 9.74883C9.08984 10.0234 9.15664 10.2602 9.23438 10.4699C9.07617 10.4387 8.92109 10.4051 8.7668 10.3699ZM13.3438 10.807C13.4867 10.6797 13.6238 10.5512 13.7449 10.4266C14.1305 10.0312 14.3496 9.89414 14.4473 9.84727C14.5074 9.91523 14.5906 10.0316 14.6504 10.116C14.768 10.2809 14.9184 10.4891 15.1148 10.6812C14.5267 10.7503 13.9357 10.7922 13.3438 10.807ZM3.62734 6.67539C3.84336 6.80977 4.10547 6.90078 4.41133 6.94688C4.37813 7.01875 4.34453 7.08906 4.31563 7.15039C4.21289 7.36523 4.08828 7.62891 3.98281 7.91523C3.58594 7.44063 3.34609 6.92734 3.2957 6.38984C3.38906 6.49805 3.49844 6.59531 3.62734 6.67539ZM2.62969 6.94727C2.63477 6.96562 2.63789 6.98477 2.64297 7.00352C2.36953 7.39336 2.2207 7.8082 2.2207 8.23867C2.2207 9.62656 3.75391 10.852 6.09961 11.5996C6.05977 11.9281 6.01562 12.259 5.97344 12.5621C3.49375 11.7238 1.8668 10.332 1.8668 8.7543C1.8668 8.11211 2.14258 7.50273 2.62969 6.94727ZM2.22109 11.8477C2.22109 11.6609 2.24688 11.4777 2.2918 11.2973C2.3875 11.393 2.48711 11.4875 2.59336 11.5793C2.74414 12.7191 3.92734 13.734 5.73008 14.4398C5.69368 14.7601 5.6649 15.0811 5.64375 15.4027C3.55273 14.5516 2.22109 13.275 2.22109 11.8477ZM5.65117 16.7504C5.31641 16.4719 5.03594 16.1758 4.82617 15.8637C5.07812 15.9828 5.34687 16.0918 5.62227 16.1973C5.62461 16.3918 5.63359 16.5766 5.65117 16.7504ZM2.96406 16.8352C3.35977 18.9492 7.31289 20.6109 12.1344 20.6109C15.0813 20.6109 17.6965 19.9875 19.3785 19.0211C19.8205 18.8796 20.2542 18.7136 20.6777 18.5238C19.3258 20.1078 15.9625 21.2637 12.1344 21.2637C7.15742 21.2637 2.95273 19.3129 2.95273 17.0027C2.95273 16.9457 2.95937 16.8906 2.96406 16.8352ZM12.4883 22.8105C6.55195 22.8105 1.53672 20.6223 1.53672 18.0332C1.53672 17.4383 1.8043 16.8652 2.28438 16.334C2.22761 16.5523 2.19835 16.7768 2.19727 17.0023C2.19727 19.816 6.56211 22.0195 12.134 22.0195C17.1328 22.0195 21.1566 20.2449 21.932 17.8484C22.3848 17.557 22.7781 17.2379 23.1059 16.8977C23.3207 17.2633 23.4395 17.643 23.4395 18.0328C23.4398 20.6223 18.4246 22.8105 12.4883 22.8105ZM13.9043 19.0645C11.8563 19.0645 9.96836 18.7465 8.41523 18.2129L8.41563 18.2121C8.62422 17.9809 8.74961 17.684 8.82734 17.343C10.2832 17.777 12.025 18.0328 13.9043 18.0328C18.9871 18.0328 23.1094 16.1863 23.1094 13.909C23.1094 13.2703 22.7852 12.6656 22.2062 12.1258C23.0047 12.8035 23.4633 13.5879 23.4633 14.4246C23.4633 16.9867 19.1832 19.0645 13.9043 19.0645Z" fill="#008080"/>
<path d="M5.55781 5.60936C6.57656 5.4742 5.3707 7.35545 5.33945 8.51912C5.30859 9.67615 9.56094 6.12147 10.0547 8.27928C10.5488 10.4371 11.109 11.4414 13.0176 9.35858C14.502 7.73983 15.0285 8.74334 16.0457 9.57498C17.0625 10.4062 18.5469 7.42498 19.9984 7.06561C21.45 6.70584 21.5426 5.67147 21.0797 5.04178C20.616 4.41287 20.2633 4.58475 20.616 5.58162C20.9688 6.57889 19.073 6.166 18.1148 7.20037C17.1574 8.23475 16.5398 8.50428 15.7059 7.74022C14.8719 6.97537 13.3375 7.72498 12.3398 8.86404C10.4879 10.9769 10.8277 6.66053 9.31367 6.66053C7.80078 6.66053 6.06836 8.13826 6.33086 7.33787C6.55547 6.65193 7.31758 3.85623 4.84727 5.20545C4.50977 5.38865 4.53828 5.74451 5.55781 5.60936Z" fill="#008080"/>
<path d="M19.4855 15.2231C20.3965 15.2231 19.8633 10.5828 19.8633 10.5828C19.8633 10.5828 18.9961 15.2231 19.4855 15.2231Z" fill="#008080"/>
<path d="M7.47891 17.6199C8.37344 17.6199 7.50195 12.2992 7.50195 12.2992C7.50195 12.2992 6.73672 17.6199 7.47891 17.6199Z" fill="#008080"/>
<path d="M10.1867 3.44105V4.14847L11.8863 5.91878L15.8516 4.243V3.46371C18.4 4.13363 19.7269 5.22425 19.7269 4.23753C19.7269 3.99027 17.2059 2.68675 14.4711 2.40199L15.8516 2.96644L11.8687 4.28675L10.1867 3.03441L13.9637 2.36097C13.8344 2.35394 13.7047 2.34574 13.5754 2.34378C10.6059 2.30316 7.67851 3.00628 7.67851 3.58597C7.67851 4.06878 8.90156 3.76019 10.1867 3.44105Z" fill="#008080"/>
</svg>
