<svg width="25" height="25" viewBox="0 0 25 25" fill="none" xmlns="http://www.w3.org/2000/svg">
<path d="M15.5633 11.0473C15.3359 10.3707 14.9891 10.1285 14.5879 10.1285C14.0988 10.1285 13.5285 10.4875 12.9922 10.8594C12.673 11.0812 11.4375 12.4457 10.7637 12.4457C10.6865 12.4478 10.6106 12.4253 10.5469 12.3816C9.88906 11.916 10.7133 9.8871 10.7133 8.91405C10.7133 7.97225 10.5422 7.61249 10.2801 7.61249C9.55547 7.61249 8.13594 10.3715 7.74023 11.1676C7.62851 11.3922 7.47265 11.4808 7.29179 11.4808C6.65937 11.4808 5.71875 10.393 5.28672 10.2262C5.22226 10.2 5.15353 10.186 5.08398 10.1848C4.36211 10.1848 4.37773 11.9805 4.38867 12.457C4.7832 12.3492 5.15312 12.2828 5.47656 12.2828C6.29179 12.2828 6.81015 12.7051 6.675 13.9445C6.64453 14.223 6.46836 15.1105 6.75664 15.3062C6.80292 15.3363 6.85733 15.3515 6.9125 15.3496C7.24492 15.3496 7.77148 14.9398 7.96719 14.8148C8.23047 14.6461 8.50664 14.5226 8.74023 14.5226C9.02148 14.5226 9.24101 14.7012 9.3039 15.1953C9.3414 15.4879 9.19804 16.6012 9.48476 16.7789C9.52683 16.8042 9.57512 16.8173 9.62422 16.8168C10.1535 16.8168 11.057 15.4941 11.466 15.3426C11.658 15.2714 11.8612 15.2353 12.066 15.2359C12.6102 15.2359 13.1277 15.4762 13.657 15.6793C13.7461 15.7137 13.8187 15.7285 13.8777 15.7285C14.1977 15.7285 14.1047 15.2844 13.8309 15.0004C13.432 14.5848 12.7992 14.7672 12.3555 14.4695C11.7918 14.0914 12.5766 13.3316 12.8812 13.1062C13.2449 12.8367 14.0512 12.4035 14.6945 12.4035C14.9926 12.4035 15.2555 12.4965 15.4227 12.741C15.7387 13.2031 15.2129 13.7867 15.3457 14.3055C15.4016 14.5207 15.5367 14.5949 15.6969 14.5949C16.0379 14.5949 16.4898 14.2582 16.5211 14.2262C16.7289 14.0102 16.9526 13.81 17.1902 13.6273C16.0027 13.3644 15.9019 12.0574 15.5633 11.0473Z" fill="#008080"/>
<path d="M5.82656 10.0738C5.82656 10.0738 6.85351 10.9797 7.29219 10.9797C7.37617 10.9797 7.43906 10.9464 7.46836 10.866C8.09961 9.13746 9.43437 7.16207 10.3059 7.16207C10.6859 7.16207 10.9777 7.53824 11.084 8.47574C11.2215 9.68942 10.382 11.5289 10.7855 11.948C10.7943 11.9569 10.8049 11.9638 10.8165 11.9684C10.8282 11.973 10.8406 11.9751 10.8531 11.9746C11.3066 11.9746 13.0984 9.68004 14.632 9.68004C14.7501 9.67975 14.8676 9.69432 14.982 9.7234C16.3637 10.0777 15.7648 12.4336 16.8863 13.1066C17.072 13.2197 17.2849 13.2803 17.5023 13.282C17.9156 13.282 18.293 13.0464 18.3832 12.5593C18.6109 11.3297 14.7055 8.94606 16.8184 8.94606C17.1215 8.94606 17.5484 8.99489 18.1289 9.10348C18.4746 6.73473 18.3539 6.07809 18.0445 6.07809C17.6918 6.07809 17.0934 6.93082 16.6578 7.0777C16.6452 7.08192 16.632 7.08416 16.6187 7.08434C16.3699 7.08434 16.3785 6.18824 15.9527 6.18824C15.6777 6.18824 15.2219 6.56207 14.3992 7.79098C13.975 8.42496 13.6574 8.67574 13.4066 8.67574C12.4527 8.67574 12.4797 5.02692 11.3352 5.02692C11.1039 5.02692 10.825 5.17574 10.4805 5.53317C9.95156 6.08239 9.45781 6.27692 8.9957 6.27692C7.87031 6.27692 6.93789 5.12106 6.17344 5.12106C5.87187 5.12106 5.5957 5.30114 5.34492 5.80426C4.82578 6.84762 6.58359 6.79371 5.82656 10.0738ZM7.17148 10.5433C6.96601 10.4511 6.60117 10.2043 6.25898 9.92301C6.32226 9.61324 6.36133 9.33512 6.38398 9.07887C6.48047 8.91715 6.59922 8.75778 6.74414 8.61012C7.33437 8.00817 8.09062 7.81793 8.46133 8.16559C7.93281 8.8941 7.46758 9.7859 7.17148 10.5433ZM15.8477 8.99098C15.6547 9.44762 16.0301 9.92965 16.6047 10.5597C16.5646 10.6035 16.518 10.6408 16.4664 10.6703C16.4117 10.7006 16.3523 10.7216 16.2906 10.7324C16.1078 10.1152 15.8012 9.52262 15.0773 9.33707C14.971 9.31111 14.8624 9.29503 14.7531 9.28903C14.557 8.65153 14.648 8.0527 15.0195 7.84567C15.4289 7.61637 16.0258 7.94371 16.4332 8.57887C16.2062 8.62223 15.9594 8.72692 15.8477 8.99098Z" fill="#008080"/>
<path d="M18.7527 12.568C18.6672 13.127 19.4797 13.227 19.0914 14.1426C18.8922 14.611 17.2051 15.6907 17.3293 15.927C17.5133 16.2727 17.7344 16.4071 17.9582 16.4071C18.4012 16.4071 18.8524 15.8813 19.034 15.4258C19.2719 14.8301 19.3332 13.2664 19.9129 12.9766C20.0109 12.927 20.1078 12.9051 20.2035 12.9051C20.7758 12.9051 21.3106 13.6789 21.8262 13.7836C21.952 13.2235 21.8621 12.6422 21.9902 12.0789C19.8137 12.0516 23.1996 9.07698 21.2649 7.86331C21.1606 7.79807 21.0731 7.76878 20.9965 7.76917C20.3875 7.76917 20.5293 9.63401 18.9906 9.63401C18.868 9.63401 18.734 9.6219 18.5883 9.59612C18.0254 9.4969 17.6367 9.45081 17.3824 9.45081C15.9004 9.45159 18.993 11.0106 18.7527 12.568Z" fill="#008080"/>
<path d="M22.6082 9.64569C22.6637 9.31017 22.6666 8.96805 22.6168 8.63163C22.477 7.69452 21.7445 6.93202 20.9844 6.93163C20.7246 6.93163 20.1027 7.03983 19.8086 7.96288C19.6108 7.88023 19.4111 7.80208 19.2098 7.7285C19.3836 6.55858 19.3184 5.75663 19.0062 5.34686C18.931 5.24434 18.8325 5.16104 18.719 5.10375C18.6054 5.04646 18.4799 5.0168 18.3527 5.01718C17.9441 5.01718 17.4852 5.29061 16.9148 5.87538L16.8941 5.81991C16.773 5.49257 16.5707 4.94491 16.0277 4.94491C15.6566 4.94491 15.1652 5.17382 14.1324 6.67929C13.8329 6.65725 13.533 6.64123 13.2328 6.63124L13.1773 6.42967C12.8551 5.24647 12.4895 3.90585 11.4594 3.90546H11.459C11.0391 3.90546 10.5973 4.15272 10.1078 4.66093C9.74336 5.03983 9.38281 5.22382 9.00508 5.22382C8.54453 5.22382 8.07305 4.95975 7.6168 4.70468C7.15547 4.44686 6.67891 4.18007 6.18594 4.18007C5.60156 4.18007 5.12656 4.53827 4.73359 5.27538C4.28477 6.11757 4.53437 6.67382 4.77578 7.2121C4.88125 7.44686 4.9918 7.69569 5.07031 8.00116C2.4543 9.1246 0.78125 10.8258 0.78125 12.7332C0.78125 18.0195 6.02812 24.2187 12.5 24.2187C18.9723 24.2187 24.2188 18.0195 24.2188 12.7332C24.2188 11.6058 23.6258 10.5527 22.6082 9.64569ZM12.5 23.4223C7.57383 23.4223 3.43164 19.5566 2.05391 15.5086C3.99102 17.4965 7.93984 18.8586 12.5 18.8586C17.0602 18.8586 21.0082 17.4965 22.9453 15.509C21.5676 19.5562 17.4258 23.4223 12.5 23.4223ZM16.8496 16.5918C16.7555 16.8879 16.4629 17.3379 16.1 17.6547C15.5398 18.1433 14.857 18.2484 14.5316 17.907C14.2582 17.6187 14.3031 17.0832 14.6172 16.582C15.2602 15.5555 16.182 15.3305 16.582 15.5336C16.5742 15.5617 16.5633 15.5887 16.5578 15.6187C16.5023 15.9308 16.6027 16.2582 16.8496 16.5918ZM22.8527 11.573C22.4703 11.573 22.2863 12.6324 22.259 13.2984C22.2348 13.8855 22.0652 14.0812 21.8227 14.0812C21.4734 14.0812 20.9727 13.6765 20.5355 13.4476C20.3957 13.3742 20.2883 13.3418 20.2039 13.3418C19.9535 13.3418 19.9078 13.6344 19.8219 14.0484C19.677 14.7473 19.5043 15.4723 19.1254 16.075C18.8473 16.5176 18.4172 16.8254 17.9863 16.8254C17.7031 16.8254 17.4195 16.6926 17.1781 16.3781C16.2289 15.1445 18.3141 14.8922 18.7297 14.0465C18.9703 13.5574 18.8934 13.3871 18.673 13.3871C18.2395 13.3871 17.2508 14.0488 17.0469 14.2359C16.6867 14.5652 16.273 15.0504 15.7668 15.0504C15.6812 15.0504 15.5926 15.0363 15.5012 15.0055C14.9641 14.8242 14.8887 14.1484 15.0023 13.6465C15.0969 13.2269 15.3145 12.85 14.7535 12.8285C14.7337 12.8277 14.7139 12.8273 14.6941 12.8273C14.3328 12.8273 13.9637 12.9461 13.6359 13.0945C13.2383 13.275 12.6883 13.5976 12.5441 14.0715C12.4992 14.2172 13.4637 14.3691 13.6137 14.4269C14.3652 14.7207 14.7328 16.1351 13.9465 16.1351C13.8449 16.1351 13.7242 16.1113 13.5824 16.0598C13.0895 15.8758 12.5938 15.6156 12.0777 15.6156C11.9082 15.6156 11.7367 15.6437 11.5629 15.7121C11.2027 15.8535 11.0059 16.257 10.7223 16.5098C10.3027 16.8863 9.93164 17.0887 9.64023 17.0887C9.23867 17.0887 8.98867 16.7043 8.97266 15.8601C8.95859 15.1742 8.82695 14.9519 8.61406 14.9519C8.23438 14.9519 7.59687 15.6609 6.91211 15.7133C6.89219 15.7144 6.87305 15.7152 6.85469 15.7152C5.94102 15.7152 6.29648 13.9781 6.36758 13.4426C6.44531 12.8586 6.09297 12.6512 5.55039 12.6512C4.94062 12.6512 4.09258 12.9129 3.3457 13.1969C3.38164 13.2289 3.41914 13.257 3.45352 13.2922C4.13711 13.9742 4.36172 14.8738 3.95664 15.3C3.55078 15.7254 2.66836 15.5172 1.98555 14.8344C1.30273 14.1516 1.07734 13.2519 1.4832 12.8262C1.82969 12.4601 2.36836 12.5832 2.82656 12.8273C3.42539 12.6262 4.03281 12.4508 4.01875 12.168C3.91211 10.0289 4.51875 9.62968 4.98711 9.63007C5.16564 9.63451 5.34027 9.68324 5.49531 9.77186C5.91797 7.0496 4.33242 6.86483 5.07734 5.46678C5.43008 4.80546 5.79844 4.57968 6.18672 4.57968C7.02148 4.57968 7.94766 5.62303 9.00586 5.62303C9.44297 5.62303 9.90273 5.44452 10.3875 4.941C10.8223 4.48944 11.1723 4.30468 11.4602 4.30468C12.748 4.30507 12.7824 8.00389 13.5188 8.00389C13.6602 8.00389 13.8277 7.86757 14.0344 7.54257C15.1145 5.84647 15.6891 5.34374 16.0281 5.34374C16.5227 5.34374 16.516 6.41327 16.843 6.41327C16.9102 6.41327 16.9922 6.36757 17.0953 6.2578C17.6379 5.68007 18.0555 5.41561 18.3531 5.41561C19.0551 5.41561 19.0898 6.88475 18.518 9.17342C18.518 9.17342 18.6457 9.20585 18.8328 9.20585C19.2316 9.20585 19.8984 9.05936 20.1594 8.14374C20.3238 7.56718 20.6437 7.33046 20.9852 7.33046C21.5242 7.33046 22.116 7.9203 22.2312 8.69178C22.441 10.1008 21.5117 11.0988 21.5844 11.5238C21.5969 11.5992 21.634 11.6289 21.6895 11.6289C21.8977 11.6289 22.3652 11.2051 22.7734 11.2051C23.0777 11.2051 23.3496 11.4414 23.4543 12.2672C23.2152 11.7668 23.016 11.573 22.8527 11.573Z" fill="#008080"/>
</svg>
